<?xml version="1.0" standalone="no"?>
<!DOCTYPE svg PUBLIC "-//W3C//DTD SVG 20010904//EN"
 "http://www.w3.org/TR/2001/REC-SVG-20010904/DTD/svg10.dtd">
<svg version="1.0" xmlns="http://www.w3.org/2000/svg"
 width="64.000000pt" height="50.000000pt" viewBox="0 0 64.000000 50.000000"
 preserveAspectRatio="xMidYMid meet">

<g transform="translate(0.000000,50.000000) scale(0.100000,-0.100000)"
fill="#000000" stroke="none">
<path d="M0 250 l0 -180 320 0 320 0 0 180 0 180 -320 0 -320 0 0 -180z m367
-2 c-2 -13 -4 -3 -4 22 0 25 2 35 4 23 2 -13 2 -33 0 -45z m23 -38 c0 -5 -5
-10 -10 -10 -6 0 -2 -10 10 -22 11 -12 20 -29 20 -37 0 -14 -1 -14 -10 -1 -9
13 -11 13 -20 0 -8 -13 -10 -13 -10 1 0 9 -3 31 -6 48 -5 24 -3 31 10 31 9 0
16 -4 16 -10z m135 0 c4 -6 -10 -10 -34 -10 -23 0 -41 5 -41 10 0 6 15 10 34
10 19 0 38 -4 41 -10z"/>
</g>
</svg>
